<svg id="Layer_1" data-name="Layer 1" xmlns="http://www.w3.org/2000/svg" viewBox="0 0 512 512"><defs><style>.cls-1{fill:#ff4949;}.cls-2{fill:none;stroke:#fc7a7a;stroke-miterlimit:10;stroke-width:19.49px;}</style></defs><title>logo colored svg</title><path class="cls-1" d="M187.29,151.68v71.46H115.83V151.68h71.46m3.9-26H111.93a22.09,22.09,0,0,0-22.09,22.09V227a22.08,22.08,0,0,0,22.09,22.08h79.26A22.08,22.08,0,0,0,213.27,227V147.78a22.09,22.09,0,0,0-22.08-22.09Z"/><path class="cls-1" d="M398.42,372.55V444H327V372.55h71.46m3.9-26H323.06A22.09,22.09,0,0,0,301,368.66v79.25A22.09,22.09,0,0,0,323.06,470h79.26a22.09,22.09,0,0,0,22.09-22.09V368.66a22.09,22.09,0,0,0-22.09-22.09Z"/><rect class="cls-1" x="242.51" y="128.94" width="32.48" height="45.47" rx="14.32"/><rect class="cls-1" x="242.51" y="421.28" width="32.48" height="45.47" rx="16.24"/><rect class="cls-1" x="89.84" y="346.57" width="123.43" height="123.43" rx="22.09"/><rect class="cls-1" x="300.97" y="128.94" width="123.43" height="123.43" rx="22.09"/><rect class="cls-1" x="242.51" y="330.33" width="32.48" height="77.96" rx="14.53"/><rect class="cls-1" x="106.08" y="258.87" width="32.48" height="71.46" rx="13.91" transform="translate(-172.27 416.92) rotate(-90)"/><rect class="cls-1" x="200.28" y="242.63" width="32.48" height="103.94" rx="16.24" transform="translate(-78.08 511.12) rotate(-90)"/><rect class="cls-1" x="343.2" y="236.13" width="32.48" height="116.93" rx="16.24" transform="translate(64.84 654.04) rotate(-90)"/><rect class="cls-1" x="242.51" y="193.91" width="32.48" height="45.47" rx="14.32"/><path class="cls-2" d="M188.95,25h0a55.5,55.5,0,0,1,55.5,55.5v21.15a0,0,0,0,1,0,0H214.9a51.3,51.3,0,0,1-51.3-51.3v0A25.35,25.35,0,0,1,188.95,25Z"/><path class="cls-2" d="M327.6,25h29.55a0,0,0,0,1,0,0V46.15a55.5,55.5,0,0,1-55.5,55.5h0A25.35,25.35,0,0,1,276.3,76.3v0A51.3,51.3,0,0,1,327.6,25Z" transform="translate(633.44 126.65) rotate(-180)"/></svg>